<svg id="Layer_1" data-name="Layer 1" xmlns="http://www.w3.org/2000/svg" viewBox="0 0 500 500"><defs><style>.cls-1{fill:#d7e9ff;}.cls-2{fill:#edf5ff;}.cls-3{fill:#fcdc0c;}.cls-4{fill:#75ba1b;}.cls-5{fill:#037c9b;}</style></defs><path class="cls-1" d="M250,18.19H470.62a11.94,11.94,0,0,1,11.94,11.94V471.37a11.94,11.94,0,0,1-11.94,11.94H250a0,0,0,0,1,0,0V18.19A0,0,0,0,1,250,18.19Z"/><path class="cls-2" d="M17.44,18.19H238.06A11.94,11.94,0,0,1,250,30.13V471.37a11.94,11.94,0,0,1-11.94,11.94H17.44a0,0,0,0,1,0,0V18.19A0,0,0,0,1,17.44,18.19Z" transform="translate(267.44 501.5) rotate(-180)"/><circle class="cls-3" cx="325.47" cy="293.15" r="13.92"/><path class="cls-4" d="M181.82,259.39c-.47-.15-.95-.32-1.43-.46a12.28,12.28,0,0,1-.72-23.38l1.5-.53V193.66h6.12c0,1.46.48,3.11-.09,4.23-2,3.91-.73,8-.86,11.91-.25,7.77-.07,15.57-.07,23.35V235l1.35.47a12.26,12.26,0,0,1-.93,23.51c-.38.1-.74.25-1.11.37Zm-5.22-12.31a7.12,7.12,0,1,0,7.16-7.11A7.11,7.11,0,0,0,176.6,247.08Z"/><path class="cls-4" d="M311.12,259.39c-2.1-1.06-4.48-1.8-6.22-3.29s-2.74-3.65-4.36-5.93H269.88V234.59h4.93v10.35c.65.05,1.09.11,1.53.11,7.73,0,15.46,0,23.19,0,1,0,1.45-.18,1.77-1.26a12.24,12.24,0,1,1,14.36,15.28,7.54,7.54,0,0,0-.79.3ZM306,247.18a7.12,7.12,0,0,0,7.18,7.09A7.15,7.15,0,1,0,313,240,7.13,7.13,0,0,0,306,247.18Z"/><path class="cls-4" d="M317.7,160.26v15.52c0,2.16-.05,4.33,0,6.48,0,1.15-.19,1.71-1.5,1.86-2.71.32-5.38.87-8.07,1.29a2,2,0,0,0-2,1.65,53.52,53.52,0,0,1-6.12,14.72,1.6,1.6,0,0,0,.08,2.11c2,2.68,3.91,5.43,5.79,8.06l-16.69,16.71c-2.6-1.86-5.31-3.73-7.93-5.71a1.84,1.84,0,0,0-2.4-.09,52.83,52.83,0,0,1-14.57,6,2,2,0,0,0-1.66,2c-.41,2.81-.87,5.61-1.4,8.4-.09.44-.7,1.11-1.07,1.11-7.5.07-15,.05-22.67.05-.51-3.1-1.07-6.09-1.48-9.11a2.61,2.61,0,0,0-2.27-2.59,50,50,0,0,1-14.07-5.9,1.82,1.82,0,0,0-2.39.15c-2.59,1.94-5.25,3.79-7.74,5.57L192.83,211.8c1.77-2.47,3.65-5.18,5.62-7.8a1.83,1.83,0,0,0,.05-2.4,52.89,52.89,0,0,1-6-14.58,1.86,1.86,0,0,0-1.83-1.59c-2.86-.44-5.72-.89-8.56-1.44-.44-.08-1.11-.69-1.12-1.05-.06-7.5,0-15,0-22.66,3.17-.52,6.23-1.08,9.3-1.5a2.37,2.37,0,0,0,2.37-2.07,55.92,55.92,0,0,1,6.63-15.46l-6.37-8.94,16.82-16.69,8.86,6.32A61.14,61.14,0,0,1,234.82,115a2.09,2.09,0,0,0,1-1.45c.62-3.23,1.12-6.48,1.68-9.82.57,0,1.07-.08,1.57-.08,6.82,0,13.64,0,20.47,0,1.19,0,1.67.3,1.83,1.56.33,2.76.9,5.49,1.3,8.24a1.84,1.84,0,0,0,1.66,1.79c1.53.32,3,.88,4.65,1.38-.59,1.67-1.12,3.15-1.67,4.67-2.78-.7-5.48-1.32-8.13-2.09-.41-.12-.82-.85-.91-1.36-.55-3-1-5.92-1.51-9H241.88c-.46,2.77-1,5.54-1.36,8.33a2.36,2.36,0,0,1-2.24,2.38,49.17,49.17,0,0,0-18.42,7.66,2.09,2.09,0,0,1-2.94-.1c-2.24-1.74-4.6-3.32-6.86-4.93-3.49,3.57-6.94,7.08-10.5,10.71l5.7,8c-1.76,3.31-3.73,6.45-5.15,9.82a83.55,83.55,0,0,0-3.28,10.35c-.37,1.31-.82,2-2.27,2.16-2.81.33-5.6.9-8.46,1.39v14.86c2.91.49,5.8,1,8.7,1.43a2,2,0,0,1,2,1.86,50.87,50.87,0,0,0,8,19.19,1.51,1.51,0,0,1-.08,2.08c-1.8,2.41-3.52,4.88-5.17,7.19l10.64,10.6c2.18-1.56,4.6-3.23,7-5a1.84,1.84,0,0,1,2.53-.11,50.53,50.53,0,0,0,19.21,8,1.66,1.66,0,0,1,1.56,1.63c.35,2.48.8,4.94,1.16,7.41.16,1.08.47,1.67,1.79,1.64,4.42-.1,8.85,0,13.41,0,.5-3,1.06-5.92,1.44-8.82a1.86,1.86,0,0,1,1.76-1.85,51.76,51.76,0,0,0,19.21-8,1.61,1.61,0,0,1,2.22.07c2.4,1.8,4.87,3.51,7.21,5.18l10.57-10.62c-1.62-2.25-3.32-4.71-5.12-7.11a1.76,1.76,0,0,1-.08-2.38,51.34,51.34,0,0,0,8-19.21,1.78,1.78,0,0,1,1.75-1.66c2.92-.38,5.81-.91,8.79-1.4V164.6c-2.75-.46-5.51-1-8.31-1.35-1.51-.17-2.05-.79-2.35-2.25a49.61,49.61,0,0,0-7.59-18.28,2.3,2.3,0,0,1,.13-3.23c1.72-2.19,3.26-4.51,4.84-6.72l-10.7-10.5c-2.3,1.64-4.77,3.46-7.31,5.17a2,2,0,0,1-1.71.12c-2.39-1.31-4.7-2.74-7.21-4.24.64-1.38,1.32-2.84,2.1-4.5a47.9,47.9,0,0,1,4.33,2.35,2.07,2.07,0,0,0,2.83-.17c2.53-1.92,5.15-3.72,7.61-5.48,5.6,5.59,11.09,11.09,16.74,16.72-1.78,2.49-3.66,5.19-5.62,7.81a1.81,1.81,0,0,0-.16,2.39,51.62,51.62,0,0,1,6,14.41,2.17,2.17,0,0,0,2.15,1.88C311.34,159.18,314.41,159.72,317.7,160.26Z"/><path class="cls-4" d="M223.92,194.29c-1.18,1-2.36,2.08-3.53,3.12-10.48-10.49-14.83-32.66-1.25-49.54a38.68,38.68,0,1,1,5,53.5c1-1.23,2.09-2.47,3.22-3.79,8.32,6.77,17.75,9.38,28.24,7.45A32.47,32.47,0,0,0,276,192.4a33.59,33.59,0,0,0-47.41-46.81A34,34,0,0,0,223.92,194.29Z"/><path class="cls-4" d="M319.67,151.54h-7.81v-4.95l2.55-.16V109.15c-7.6-3.35-10.8-8.45-9.3-14.85a12.27,12.27,0,0,1,24.06.67c.88,5.9-2.14,12-9.5,14.13Zm4.52-54.47a7.13,7.13,0,1,0-7.17,7.11A7.12,7.12,0,0,0,324.19,97.07Z"/><path class="cls-4" d="M196.23,94.66h31.12V110.1h-4.9V99.87c-.76,0-1.31-.09-1.85-.09-7.62,0-15.24,0-22.85,0a1.89,1.89,0,0,0-2.18,1.49A12.14,12.14,0,0,1,181,108.89a12.26,12.26,0,1,1,14.7-15.83C195.89,93.54,196,94,196.23,94.66Zm-12.18-4.79a7.16,7.16,0,0,0,.13,14.31,7.16,7.16,0,1,0-.13-14.31Z"/><path class="cls-4" d="M242.49,158.66v26.62h-5V175.9h-7.67v9.38h-5V158.66Zm-5.12,12v-6.78h-7.45v6.78Z"/><path class="cls-4" d="M264.62,158.68v16.89H251.84v9.71h-5v-26.6ZM252,163.81v6.52h7.56v-6.52Z"/><path class="cls-4" d="M273.88,158.91v26.37H269V158.91Z"/><path class="cls-4" d="M298.22,172h-5.05a44.34,44.34,0,0,0-4.84-19.89l4.52-2.33A47.72,47.72,0,0,1,298.22,172Z"/><path class="cls-4" d="M279.17,133.24l4.07,3.51-3.49,3.69-3.69-3.13Z"/><path class="cls-4" d="M283,144l3.89-3.24,3.24,4.25-4.22,2.86Z"/><path class="cls-5" d="M96.05,299H409.8V139.23c0-6.72-1.47-8.17-8.23-8.18-2.92,0-5.84.09-8.76,0-3.43-.15-5.45-2.3-5.46-5.55a5.21,5.21,0,0,1,5.45-5.56c4.2-.13,8.41-.21,12.6,0A16.81,16.81,0,0,1,421,135.64c.07,1.16,0,2.33,0,3.5V335.93c0,12.62-6.59,19.23-19.19,19.23H104.19c-12.78,0-19.35-6.61-19.35-19.44q0-98.4,0-196.79c0-12.38,6.65-19.08,19-19.09,3,0,6.07-.08,9.1,0,3.47.13,5.52,2.21,5.58,5.44.07,3.39-2,5.57-5.68,5.69-3.15.11-6.3,0-9.45,0-5.53,0-7.3,1.79-7.31,7.35V299Zm0,11.5v24.77c0,7.4,1.3,8.7,8.77,8.7H401c.81,0,1.63,0,2.45,0,4.37-.12,6.34-2.06,6.37-6.52,0-8.4,0-16.8,0-25.2a15,15,0,0,0-.22-1.74Z"/><path class="cls-5" d="M217.16,388.62h71.91c-1.44-1.92-2.8-3.54-3.94-5.3-1.9-2.93-3.81-5.87-5.42-9a5.51,5.51,0,0,1,2.24-7.78c2.84-1.45,6-.46,7.62,2.75a55.44,55.44,0,0,0,13.53,17.22,11.2,11.2,0,0,0,5.52,2.15c3.2.46,6.58,0,9.72.65a16.49,16.49,0,0,1,13,16.12c.07,3.38,0,6.76,0,10.15-.05,4.77-2,6.76-6.87,6.77q-25.38,0-50.76,0h-91c-6.63,0-8.2-1.58-8.2-8.28,0-3-.08-6.07,0-9.1a16.88,16.88,0,0,1,16.52-16.23,1.37,1.37,0,0,1,.35,0c7.89,1.7,13.05-2.45,17.33-8.25,2.48-3.36,4.87-6.82,7-10.41s5.15-5.15,8.22-3.52,3.85,4.93,1.64,8.75C223.06,379.79,220.14,384,217.16,388.62ZM185.71,411H320c.74-9.65-.44-11-9.66-11H248.37q-28,0-56,0c-4.65,0-6.58,2-6.67,6.57C185.68,408,185.71,409.34,185.71,411Z"/><path class="cls-4" d="M126.51,220.7c9.36,7.79,18.32,15.22,27.23,22.72a10.57,10.57,0,0,1,3.11,3.64c1,2.54.1,4.85-2.13,6.43-2.44,1.73-4.82,1.27-7-.57l-22-18.36c-3.49-2.91-7-5.8-10.47-8.73-4.06-3.43-4.11-6.79-.1-10.16q15.81-13.24,31.66-26.44c3.39-2.82,6.71-2.86,8.92-.18s1.64,5.93-1.73,8.76C144.93,205.36,135.9,212.87,126.51,220.7Z"/><path class="cls-4" d="M378.17,220.71c-9.49-7.92-18.62-15.51-27.72-23.14-3.53-3-3.72-7.16-.42-9.43a5.42,5.42,0,0,1,7.08.42c11,9.18,22.07,18.33,33,27.59,3.34,2.83,3.25,6.4-.16,9.27q-16.32,13.74-32.78,27.32c-3,2.48-6.17,2.22-8.33-.4s-1.72-5.76,1.25-8.25C359.3,236.38,368.54,228.72,378.17,220.71Z"/><path class="cls-4" d="M253.05,332.73c-3.62,0-7.24.07-10.86,0s-5.92-2.35-5.9-5.56,2.39-5.51,6-5.56q11-.13,22.06,0c3.59.06,5.88,2.42,5.86,5.64s-2.25,5.42-5.92,5.48S256.78,332.73,253.05,332.73Z"/></svg>