<svg id="Layer_1" data-name="Layer 1" xmlns="http://www.w3.org/2000/svg" xmlns:xlink="http://www.w3.org/1999/xlink" viewBox="0 0 500 500"><defs><style>.cls-1{fill:none;}.cls-2{fill:#d7e9ff;}.cls-3{fill:#edf5ff;}.cls-4{fill:#06d1d8;}.cls-5{fill:#037c9b;}.cls-6{fill:#ff6d1e;}.cls-7{fill:#75ba1b;}.cls-8{fill:#fcdc0c;}.cls-9{fill:#01597d;}.cls-10,.cls-11{fill:#231f20;}.cls-11{fill-rule:evenodd;}.cls-12{clip-path:url(#clip-path);}.cls-13{fill:#fff;}</style><clipPath id="clip-path"><rect class="cls-1" x="270.62" y="219.49" width="163.25" height="164.55" rx="11.26"/></clipPath></defs><path class="cls-2" d="M261.94,0H470.62a11.94,11.94,0,0,1,11.94,11.94V453.18a11.94,11.94,0,0,1-11.94,11.94H250a0,0,0,0,1,0,0V11.94A11.94,11.94,0,0,1,261.94,0Z"/><path class="cls-3" d="M17.44,0H238.06A11.94,11.94,0,0,1,250,11.94V453.18a11.94,11.94,0,0,1-11.94,11.94H29.38a11.94,11.94,0,0,1-11.94-11.94V0a0,0,0,0,1,0,0Z" transform="translate(267.44 465.12) rotate(-180)"/><path class="cls-4" d="M29.38,0H250a0,0,0,0,1,0,0V123.41a0,0,0,0,1,0,0H17.44a0,0,0,0,1,0,0V11.94A11.94,11.94,0,0,1,29.38,0Z"/><path class="cls-5" d="M250,0H482.56a0,0,0,0,1,0,0V123.41a0,0,0,0,1,0,0H261.94A11.94,11.94,0,0,1,250,111.47V0a0,0,0,0,1,0,0Z" transform="translate(732.56 123.41) rotate(-180)"/><circle class="cls-6" cx="311.54" cy="61.98" r="13.92"/><circle class="cls-7" cx="366.17" cy="61.98" r="13.92"/><circle class="cls-8" cx="421.02" cy="61.98" r="13.92"/><rect class="cls-9" x="64.81" y="47.83" width="137.82" height="28.46" rx="11.75"/><rect class="cls-5" x="270.62" y="219.49" width="163.25" height="164.55" rx="11.26"/><rect class="cls-1" x="23.21" y="321.7" width="45" height="39.85"/><rect class="cls-10" x="44.11" y="324.64" width="4.5" height="7.4"/><rect class="cls-10" x="44.11" y="337.91" width="4.5" height="7.4"/><rect class="cls-10" x="44.11" y="351.13" width="4.5" height="7.4"/><rect class="cls-1" x="23.21" y="281.84" width="45" height="39.85"/><rect class="cls-10" x="44.11" y="284.79" width="4.5" height="7.4"/><rect class="cls-10" x="44.11" y="298.06" width="4.5" height="7.4"/><rect class="cls-10" x="44.11" y="311.28" width="4.5" height="7.4"/><rect class="cls-1" x="23.21" y="241.99" width="45" height="39.85"/><rect class="cls-10" x="44.11" y="244.94" width="4.5" height="7.4"/><rect class="cls-10" x="44.11" y="258.2" width="4.5" height="7.4"/><rect class="cls-10" x="44.11" y="271.43" width="4.5" height="7.4"/><rect class="cls-1" x="68.2" y="197" width="39.42" height="45"/><rect class="cls-10" x="97.39" y="217.9" width="7.32" height="4.5"/><rect class="cls-10" x="84.27" y="217.9" width="7.32" height="4.5"/><rect class="cls-10" x="71.19" y="217.9" width="7.32" height="4.5"/><rect class="cls-1" x="107.62" y="197" width="39.42" height="45"/><rect class="cls-10" x="136.81" y="217.9" width="7.32" height="4.5"/><rect class="cls-10" x="123.69" y="217.9" width="7.32" height="4.5"/><rect class="cls-10" x="110.61" y="217.9" width="7.32" height="4.5"/><rect class="cls-1" x="147.04" y="197" width="39.42" height="45"/><rect class="cls-10" x="176.23" y="217.9" width="7.32" height="4.5"/><rect class="cls-10" x="163.11" y="217.9" width="7.32" height="4.5"/><rect class="cls-10" x="150.03" y="217.9" width="7.32" height="4.5"/><rect class="cls-1" x="186.46" y="241.99" width="45" height="39.85"/><rect class="cls-10" x="206.05" y="271.5" width="4.5" height="7.4"/><rect class="cls-10" x="206.05" y="258.24" width="4.5" height="7.4"/><rect class="cls-10" x="206.05" y="245.01" width="4.5" height="7.4"/><rect class="cls-1" x="186.46" y="281.84" width="45" height="39.85"/><rect class="cls-10" x="206.05" y="311.35" width="4.5" height="7.4"/><rect class="cls-10" x="206.05" y="298.09" width="4.5" height="7.4"/><rect class="cls-10" x="206.05" y="284.86" width="4.5" height="7.4"/><rect class="cls-1" x="186.46" y="321.7" width="45" height="39.85"/><rect class="cls-10" x="206.05" y="351.21" width="4.5" height="7.4"/><rect class="cls-10" x="206.05" y="337.94" width="4.5" height="7.4"/><rect class="cls-10" x="206.05" y="324.72" width="4.5" height="7.4"/><rect class="cls-1" x="147.04" y="361.55" width="39.42" height="45"/><rect class="cls-10" x="149.95" y="381.14" width="7.32" height="4.5"/><rect class="cls-10" x="163.08" y="381.14" width="7.32" height="4.5"/><rect class="cls-10" x="176.16" y="381.14" width="7.32" height="4.5"/><rect class="cls-1" x="107.62" y="361.55" width="39.42" height="45"/><rect class="cls-10" x="110.53" y="381.14" width="7.32" height="4.5"/><rect class="cls-10" x="123.66" y="381.14" width="7.32" height="4.5"/><rect class="cls-10" x="136.74" y="381.14" width="7.32" height="4.5"/><rect class="cls-1" x="68.2" y="361.55" width="39.42" height="45"/><rect class="cls-10" x="71.12" y="381.14" width="7.32" height="4.5"/><rect class="cls-10" x="84.24" y="381.14" width="7.32" height="4.5"/><rect class="cls-10" x="97.32" y="381.14" width="7.32" height="4.5"/><rect class="cls-10" x="43.8" y="231.4" width="4.52" height="7.5"/><polygon class="cls-11" points="43.8 217.9 43.8 225.4 48.31 225.4 48.31 222.4 51.3 222.4 51.3 217.9 43.8 217.9"/><rect class="cls-10" x="57.3" y="217.9" width="7.5" height="4.5"/><rect class="cls-10" x="189.55" y="217.58" width="7.5" height="4.52"/><polygon class="cls-11" points="210.55 217.58 203.05 217.58 203.05 222.1 206.05 222.1 206.05 225.08 210.55 225.08 210.55 217.58"/><rect class="cls-10" x="206.05" y="231.08" width="4.5" height="7.5"/><rect class="cls-10" x="206.35" y="364.64" width="4.52" height="7.5"/><polygon class="cls-11" points="210.87 385.64 210.87 378.14 206.35 378.14 206.35 381.14 203.37 381.14 203.37 385.64 210.87 385.64"/><rect class="cls-10" x="189.87" y="381.14" width="7.5" height="4.5"/><rect class="cls-10" x="57.61" y="381.44" width="7.5" height="4.52"/><polygon class="cls-11" points="44.11 385.96 51.61 385.96 51.61 381.44 48.61 381.44 48.61 378.46 44.11 378.46 44.11 385.96"/><rect class="cls-10" x="44.11" y="364.96" width="4.5" height="7.5"/><circle class="cls-8" cx="325.47" cy="274.96" r="13.92"/><g class="cls-12"><path class="cls-7" d="M365.24,300.34,319.59,383.8h121l-45.66-83.46A16.92,16.92,0,0,0,365.24,300.34Z"/></g><path d="M252.89,232.56c5.8,1.05,11.68,1.8,17.39,3.21A57.65,57.65,0,0,1,292.6,246.7a47.77,47.77,0,0,1,4.77,4.45c2.28,2.43,2.35,5.07.36,6.91s-4.58,1.55-6.84-.84c-7.42-7.86-16.85-12-27.2-13.87-22.82-4.12-44.91-1.9-65.62,9.16a63.35,63.35,0,0,0-22.14,20c.91.1,1.54.23,2.17.23,4.61,0,9.23,0,13.84,0,2.85,0,4.55,1.69,4.62,4.25a4.32,4.32,0,0,1-4.6,4.59q-13.19.12-26.37,0A4.34,4.34,0,0,1,161,277q-.11-13.18,0-26.38a4.29,4.29,0,0,1,4.61-4.55c2.53.09,4.19,1.84,4.23,4.66.06,4.6,0,9.21,0,14.25a12,12,0,0,0,1.46-1.28c13.16-16.41,30.6-25.32,51-29,4.77-.87,9.6-1.4,14.39-2.08Z"/><path d="M169.72,345.16c7.31-8.68,14.19-10.35,24.36-6,2.42-5.51,6.48-9.35,12.45-10.73s11.19.07,15.94,4c.37-.51.68-.91,1-1.32,8-11.53,24-10.76,30.82,1.57,7.47,13.56,14.8,27.19,22.18,40.79,4.56,8.41,8.95,16.91,13.67,25.23a58.6,58.6,0,0,1,7.47,37.93c-.29,2.08.17,3.11,2.29,4.08a12.27,12.27,0,0,1,7.49,11.34,12.83,12.83,0,0,1-7.1,12.43c-9.75,5.37-19.55,10.64-29.33,16-10.92,5.93-21.82,11.93-32.79,17.77-8.95,4.78-19-.46-19.91-10.41a17.25,17.25,0,0,1,1.26-6.8,2.55,2.55,0,0,0-.61-3.16,39.17,39.17,0,0,0-21.9-11.2,163.35,163.35,0,0,1-17.55-3.86c-10-2.82-16.57-10-21.63-18.58-4.22-7.19-8.38-14.46-12-22-4.89-10.07-3.59-19.77,3.29-28.63,3.71-4.78,3.77-4.73.86-10.09q-12.57-23.16-25.1-46.33a4,4,0,0,0-3.53-2.4,35.61,35.61,0,0,1-.92-70.66c14.21-1.86,26,3.17,34.19,15s8.6,24.51,1.88,37.26a4,4,0,0,0,0,4.45C160.92,328.84,165.22,336.87,169.72,345.16Zm-12.16,52.4c-5.63,5.72-7.49,13.38-4.16,19.91,4.43,8.66,9.28,17.13,14.3,25.46,3.07,5.07,7.41,9.16,13.23,10.91a110.79,110.79,0,0,0,16.23,3.8c11.11,1.58,20.59,6.15,28.31,14.26,1.42,1.48,2.37,1.59,4.14.62,18.14-9.95,36.29-19.89,54.56-29.61,3.2-1.7,4.38-3.59,4.76-7.24a53.38,53.38,0,0,0-6.72-32.9c-4.56-8-8.78-16.21-13.18-24.31q-11.14-20.52-22.29-41c-2-3.65-4.88-5.72-9.05-5.34a8.8,8.8,0,0,0-7.08,13c2,4,4.27,7.78,6.28,11.73a4.35,4.35,0,0,1-1.78,6.06,4.44,4.44,0,0,1-5.9-1.71,25.46,25.46,0,0,1-1.29-2.27c-3.16-5.8-6.26-11.64-9.5-17.4a8.66,8.66,0,0,0-9.49-4.44,8.22,8.22,0,0,0-6.91,6.92,12.46,12.46,0,0,0,1.12,6.47c2.44,5.09,5.47,9.9,7.89,15a5.84,5.84,0,0,1-.32,5c-.74,1.08-3.05,1.71-4.49,1.47-1.23-.21-2.53-1.74-3.25-3C199.61,363,196.48,357,193.2,351c-2.71-4.91-7.84-6.57-12.38-4.1s-5.89,7.67-3.27,12.6c2.32,4.38,4.71,8.72,7.07,13.08,2.15,4,1.91,6.48-.78,7.93s-4.88.33-7.07-3.71q-21.24-39.07-42.49-78.15a19.07,19.07,0,0,0-2.43-3.68,9.35,9.35,0,0,0-10.55-2.15,8.68,8.68,0,0,0-4.72,9.34,15.82,15.82,0,0,0,1.84,4.55q26.61,49.08,53.27,98.12c1.12,2.07,2.32,4.09,3.3,6.22a4.4,4.4,0,0,1-7.69,4.25,19.51,19.51,0,0,1-1.18-2ZM150,308.91c4.33-9.76,1.34-22-6.88-29.36a26.7,26.7,0,0,0-44,25.35c2.14,9.91,10.74,19,18.84,19.84-2.89-5.33-5.88-10.53-8.56-15.89a17.68,17.68,0,0,1,11.92-25.37,18.16,18.16,0,0,1,19.71,9C144.08,297.81,146.92,303.19,150,308.91Zm148.44,144c-.06-2.94-2.06-4.88-4.6-4.6a9.6,9.6,0,0,0-3.39,1.22q-26.72,14.48-53.39,29c-2.67,1.45-5.4,2.81-8,4.39a4.26,4.26,0,0,0-1.62,5.9,4.4,4.4,0,0,0,5.85,1.84c.71-.31,1.39-.71,2.08-1.08l28-15.19q15.93-8.65,31.86-17.31C297.09,456.09,298.57,454.86,298.48,452.89Z"/><path class="cls-13" d="M157.56,397.56l8.56,15.73a19.51,19.51,0,0,0,1.18,2,4.4,4.4,0,0,0,7.69-4.25c-1-2.13-2.18-4.15-3.3-6.22q-26.64-49.05-53.27-98.12a15.82,15.82,0,0,1-1.84-4.55,8.68,8.68,0,0,1,4.72-9.34A9.35,9.35,0,0,1,131.85,295a19.07,19.07,0,0,1,2.43,3.68q21.27,39.07,42.49,78.15c2.19,4,4.35,5.17,7.07,3.71s2.93-4,.78-7.93c-2.36-4.36-4.75-8.7-7.07-13.08-2.62-4.93-1.24-10.15,3.27-12.6s9.67-.81,12.38,4.1c3.28,5.94,6.41,12,9.77,17.85.72,1.26,2,2.79,3.25,3,1.44.24,3.75-.39,4.49-1.47a5.84,5.84,0,0,0,.32-5c-2.42-5.1-5.45-9.91-7.89-15a12.46,12.46,0,0,1-1.12-6.47,8.22,8.22,0,0,1,6.91-6.92,8.66,8.66,0,0,1,9.49,4.44c3.24,5.76,6.34,11.6,9.5,17.4a25.46,25.46,0,0,0,1.29,2.27,4.44,4.44,0,0,0,5.9,1.71,4.35,4.35,0,0,0,1.78-6.06c-2-3.95-4.3-7.76-6.28-11.73a8.8,8.8,0,0,1,7.08-13c4.17-.38,7.07,1.69,9.05,5.34q11.1,20.55,22.29,41c4.4,8.1,8.62,16.3,13.18,24.31a53.38,53.38,0,0,1,6.72,32.9c-.38,3.65-1.56,5.54-4.76,7.24-18.27,9.72-36.42,19.66-54.56,29.61-1.77,1-2.72.86-4.14-.62-7.72-8.11-17.2-12.68-28.31-14.26a110.79,110.79,0,0,1-16.23-3.8c-5.82-1.75-10.16-5.84-13.23-10.91-5-8.33-9.87-16.8-14.3-25.46C150.07,410.94,151.93,403.28,157.56,397.56Z"/><path class="cls-13" d="M150,308.91c-3.12-5.72-6-11.1-8.95-16.38a18.16,18.16,0,0,0-19.71-9,17.68,17.68,0,0,0-11.92,25.37c2.68,5.36,5.67,10.56,8.56,15.89-8.1-.82-16.7-9.93-18.84-19.84a26.7,26.7,0,0,1,44-25.35C151.38,286.9,154.37,299.15,150,308.91Z"/><path class="cls-13" d="M298.48,452.89c.09,2-1.39,3.2-3.25,4.2q-15.94,8.64-31.86,17.31l-28,15.19c-.69.37-1.37.77-2.08,1.08a4.4,4.4,0,0,1-5.85-1.84,4.26,4.26,0,0,1,1.62-5.9c2.6-1.58,5.33-2.94,8-4.39q26.68-14.54,53.39-29a9.6,9.6,0,0,1,3.39-1.22C296.42,448,298.42,450,298.48,452.89Z"/></svg>