<svg id="Layer_1" data-name="Layer 1" xmlns="http://www.w3.org/2000/svg" viewBox="0 0 500 500"><defs><style>.cls-1{fill:#d7e9ff;}.cls-2{fill:#edf5ff;}.cls-3{fill:#037c9b;}.cls-4{fill:#fcdc0c;}.cls-5{fill:#75ba1b;}</style></defs><path class="cls-1" d="M250,18.19H470.62a11.94,11.94,0,0,1,11.94,11.94V471.37a11.94,11.94,0,0,1-11.94,11.94H250a0,0,0,0,1,0,0V18.19A0,0,0,0,1,250,18.19Z"/><path class="cls-2" d="M17.44,18.19H238.06A11.94,11.94,0,0,1,250,30.13V471.37a11.94,11.94,0,0,1-11.94,11.94H17.44a0,0,0,0,1,0,0V18.19A0,0,0,0,1,17.44,18.19Z" transform="translate(267.44 501.5) rotate(-180)"/><path class="cls-3" d="M270,375.63c0-10.58.1-20.55-.12-30.52,0-1.31-1.46-3-2.7-3.8-15.48-9.81-31-19.48-46.57-29.2-1-.65-2.06-1.34-3.59-2.34,1.4-.93,2.46-1.67,3.56-2.35,15.53-9.72,31-19.46,46.63-29.09,2-1.25,2.9-2.53,2.86-5-.16-10.6-.07-21.21-.07-31.81V238H234.16V220.08H180.45v-12h53.46V190.16h35.82v-42H222.35V64.47H329.67v83.47h-47.5v42h35.44v47.83H282v3.82c0,10.48.08,21-.06,31.43a5.37,5.37,0,0,0,2.91,5.35c15.28,9.41,30.47,19,45.69,28.47l4.57,2.91c-1.5,1-2.57,1.72-3.67,2.41C316,321.78,300.56,331.47,285.07,341c-2.27,1.39-3.26,2.79-3.2,5.56.2,9.47.08,18.95.08,29.05h4c10.35,0,20.71,0,31.06,0,11.19.05,18.74,7.61,18.8,18.83q.07,11.23,0,22.46c-.09,10.91-7.73,18.55-18.7,18.57q-41.16.06-82.33,0c-11,0-18.63-7.65-18.71-18.55q-.09-11.42,0-22.83c.09-10.73,7.7-18.4,18.4-18.47,10.48-.08,21,0,31.44,0ZM234.42,76.48v59.28h83.15V76.48Zm41.35,346.89c13.59,0,27.17,0,40.76,0,4.9,0,7.12-2.21,7.16-7.05q.09-10.65,0-21.31c0-5.07-2.22-7.22-7.36-7.22q-40.38,0-80.75,0c-5.14,0-7.32,2.16-7.35,7.23,0,6.85,0,13.71,0,20.56,0,5.81,2,7.79,7.93,7.8Q256,423.4,275.77,423.37ZM239.71,309.76c12,7.5,23.46,14.71,35,21.74.8.49,2.6,0,3.6-.6,7.13-4.31,14.17-8.78,21.24-13.2l12.67-8c-12-7.5-23.46-14.69-35-21.77a3.5,3.5,0,0,0-3,.25C262.93,295.2,251.66,302.28,239.71,309.76Zm6.63-107.67v23.58h59.24V202.09Z"/><path d="M362.07,315.75l14.21,13.14-8.58,8.55L340.22,309.8l27.6-27.61,8,8.41-13,12.33.4.84H381c6.23,0,12.47-.07,18.71,0,2.05,0,3.12-.58,4.38-2.41a26,26,0,0,1,7.27-7.22c2.17-1.37,2.35-2.77,2.35-4.81q0-49.77,0-99.53c0-21.08,0-42.16,0-63.24a5,5,0,0,0-2.67-5,25,25,0,0,1-7-7c-1.23-1.83-2.28-2.46-4.35-2.45-18.46.06-36.92,0-55.38,0-.72,0-1.44-.07-2.34-.12V100.17h3.9c17.71,0,35.42,0,53.13,0,2.43,0,3.92-.37,5.23-2.88a17.4,17.4,0,0,1,18.25-8.93,18.24,18.24,0,0,1,14.89,14.88,17.43,17.43,0,0,1-8.93,18.26c-2.5,1.31-2.87,2.8-2.87,5.23q.08,81.2,0,162.39c0,2.44.41,3.91,2.89,5.21a17.46,17.46,0,0,1,8.91,18.28,18.27,18.27,0,0,1-14.91,14.86,17.57,17.57,0,0,1-18.26-8.95,4.61,4.61,0,0,0-4.85-2.87c-11,.13-22,.06-32.93.06Zm63.19-209.07c.34-2.68-2-5.59-4.88-6.08s-5.91,2-6.29,5c-.34,2.66,2,5.59,4.88,6.07S424.88,109.68,425.26,106.68Zm.05,203a6.17,6.17,0,0,0-5.5-5.6A6.1,6.1,0,0,0,414,309.8c0,2.85,3.09,5.76,5.87,5.6A6.16,6.16,0,0,0,425.31,309.71Z"/><path d="M183.76,411.56c-17.59,0-33.93-.05-50.26.11a5.08,5.08,0,0,0-3.44,2.39c-4,6.75-11.32,10.52-18.55,9.28a18.25,18.25,0,0,1-15-14.81A17.46,17.46,0,0,1,105.69,390c2.42-1.25,2.63-2.76,2.62-5q0-59.13,0-118.25v-4.7h12v4.41q0,59.31,0,118.62a5.07,5.07,0,0,0,2.67,5c2.8,1.85,4.84,4.84,7.28,7.26.85.85,1.93,2.09,2.91,2.1,16.34.11,32.68.06,49,0,.19,0,.38-.23,1.14-.71l-13.71-12.42,8.85-7.93c8.77,9,17.94,18.33,26.91,27.48l-27.17,27.18-8.06-8.36Zm-63.85-5.87a6.14,6.14,0,0,0-5.33-5.76c-2.77-.2-5.86,2.67-6,5.52a6.17,6.17,0,0,0,5.34,5.76C116.74,411.41,119.83,408.54,119.91,405.69Z"/><path class="cls-4" d="M62.32,213.82c4.41-3.17,8.62-6.21,12.84-9.22,12.26-8.76,24.54-17.49,36.75-26.31,1.65-1.19,2.81-1.43,4.58-.15,16.16,11.66,32.39,23.21,48.6,34.8l1.19.86c-1,.87-1.81,1.6-2.67,2.21q-23.4,16.74-46.81,33.47c-1.53,1.1-2.67,1.74-4.56.37C96.09,238.18,79.85,226.63,63.65,215A17.57,17.57,0,0,1,62.32,213.82Z"/><path class="cls-4" d="M217,309.62l14.58-9.22c13.92-8.76,27.87-17.49,41.75-26.31,1.86-1.19,3.18-1.43,5.19-.15q27.54,17.49,55.2,34.8l1.35.86c-1.18.87-2.06,1.6-3,2.22q-26.58,16.73-53.15,33.46c-1.75,1.1-3,1.74-5.19.37q-27.51-17.49-55.18-34.81C218.08,310.57,217.72,310.21,217,309.62Z"/><path d="M150.5,112.28H162v11.64H150.5Z"/><path d="M174.31,123.93V112.4h11.6v11.53Z"/><path d="M209.92,112.4v11.53H198.4V112.4Z"/><path d="M359.54,411.39H348V399.87h11.53Z"/><path d="M371.85,411.32V399.89h11.63v11.43Z"/><path d="M407.56,399.87v11.47H395.92V399.87Z"/><path class="cls-3" d="M246.06,100V88.36h59.67V100Z"/><path class="cls-3" d="M281.77,124.07H246.2V112.32h35.57Z"/><path class="cls-3" d="M294.12,112.2h11.59v11.73H294.12Z"/><rect class="cls-5" x="216.04" y="375.12" width="119.83" height="60.41" rx="17.41"/></svg>